<svg width="6" height="11" viewBox="0 0 6 11" fill="none" xmlns="http://www.w3.org/2000/svg">
<path fill-rule="evenodd" clip-rule="evenodd" d="M5.78412 6.0443L1.25809 10.7741C1.19266 10.8452 1.11241 10.902 1.02259 10.9409C0.932782 10.9798 0.835459 11 0.737015 11C0.63857 11 0.541237 10.9798 0.451426 10.9409C0.361615 10.902 0.281358 10.8452 0.215932 10.7741C0.0768556 10.6235 -2.49752e-08 10.4286 -3.37948e-08 10.2269C-4.26144e-08 10.0251 0.0768556 9.83048 0.215932 9.67988L4.22088 5.49986L0.215932 1.31419C0.0769145 1.1647 1.78609e-05 0.970924 1.78522e-05 0.770026C1.78434e-05 0.569127 0.0769145 0.375348 0.215932 0.225863C0.281412 0.154831 0.36172 0.0980091 0.451581 0.0590811C0.541442 0.020153 0.638815 9.25751e-07 0.737307 9.21446e-07C0.835799 9.1714e-07 0.933181 0.020153 1.02304 0.059081C1.1129 0.0980091 1.19321 0.154831 1.25869 0.225863L5.78412 4.95004C5.92351 5.1016 6.00034 5.29717 5.99998 5.49986C6.00132 5.70099 5.92427 5.89549 5.78412 6.0443Z" fill="#C7C7C7"/>
</svg>
