<svg width="26" height="16" fill="none" xmlns="http://www.w3.org/2000/svg"><path fill-rule="evenodd" clip-rule="evenodd" d="M25.06 1.349a.624.624 0 01.36.9c-.12.233-.25.46-.37.687a.49.49 0 01-.22.4A38.377 38.377 0 0121 9.026a.03.03 0 00-.02.021c1.67 1.183 5.66 4.2 3.71 5.9-1.02.893-3.98.743-5.12.237a8.776 8.776 0 01-1.831-1.255c-.98-.79-1.25-.744-2.13.1-1.13 1.085-1.76 1.772-3.43 1.575a10.71 10.71 0 01-5.35-2.613A21.618 21.618 0 01.01 1.749a.48.48 0 01.45-.573c.02 0 .02-.01.04-.015A16.937 16.937 0 015.29.99a.62.62 0 01.34.155.3.3 0 01.12.088c1.23 1.482 1.77 3.439 3.05 4.88.62.7.82.584.88-.377.029-.413.032-.827.01-1.24-.06-1.078-.44-2.023-.6-3.072a.535.535 0 01.07-.4.553.553 0 01.47-.47 44.786 44.786 0 014.58-.062.465.465 0 01.52.18.33.33 0 01.23.248c.18.942.24 1.903.18 2.86l-.03 1.385c-.01.263-.01.527-.01.79-.1.486.09.67.56.558.79.087 1-.584 1.39-1.2.23-.366.45-.743.66-1.125.5-.9.86-1.843 1.32-2.758a.46.46 0 01.37-.268.376.376 0 01.15-.047 23.642 23.642 0 015.51.234z" fill="#5476A4"/></svg>